<mxfile host="app.diagrams.net" modified="2023-12-20T11:08:02.219Z" agent="Mozilla/5.0 (Macintosh; Intel Mac OS X 10_15_7) AppleWebKit/537.36 (KHTML, like Gecko) Chrome/120.0.0.0 Safari/537.36" etag="l89Tzb_JkZVPkEMd6AXt" version="22.1.11" type="github">
  <diagram name="Page-1" id="VBRHtVJJGuexV8QGXjuE">
    <mxGraphModel dx="2074" dy="1146" grid="1" gridSize="10" guides="1" tooltips="1" connect="1" arrows="1" fold="1" page="1" pageScale="1" pageWidth="850" pageHeight="1100" math="0" shadow="0">
      <root>
        <mxCell id="0" />
        <mxCell id="1" parent="0" />
        <mxCell id="sg_Z7mvw4XHI6P6lNyN3-1" value="" style="rounded=1;whiteSpace=wrap;html=1;fillColor=#f8cecc;strokeColor=#b85450;" vertex="1" parent="1">
          <mxGeometry x="490" y="520" width="310" height="80" as="geometry" />
        </mxCell>
        <mxCell id="sg_Z7mvw4XHI6P6lNyN3-2" value="&lt;font style=&quot;font-size: 32px;&quot;&gt;TCCL&lt;/font&gt;" style="rounded=0;whiteSpace=wrap;html=1;fillColor=#cce5ff;strokeColor=#36393d;" vertex="1" parent="1">
          <mxGeometry x="40" y="320" width="1200" height="80" as="geometry" />
        </mxCell>
        <mxCell id="sg_Z7mvw4XHI6P6lNyN3-3" value="Init" style="rounded=0;whiteSpace=wrap;html=1;fillColor=#e1d5e7;strokeColor=#9673a6;fontSize=20;" vertex="1" parent="1">
          <mxGeometry x="40" y="440" width="320" height="60" as="geometry" />
        </mxCell>
        <mxCell id="sg_Z7mvw4XHI6P6lNyN3-4" value="Tools" style="rounded=0;whiteSpace=wrap;html=1;fillColor=#e1d5e7;strokeColor=#9673a6;fontSize=20;" vertex="1" parent="1">
          <mxGeometry x="1080" y="440" width="160" height="60" as="geometry" />
        </mxCell>
        <mxCell id="sg_Z7mvw4XHI6P6lNyN3-5" value="LOG" style="rounded=0;whiteSpace=wrap;html=1;fillColor=#f8cecc;strokeColor=#b85450;" vertex="1" parent="1">
          <mxGeometry x="1080" y="540" width="40" height="40" as="geometry" />
        </mxCell>
        <mxCell id="sg_Z7mvw4XHI6P6lNyN3-6" value="Perf Trace" style="rounded=0;whiteSpace=wrap;html=1;fillColor=#f8cecc;strokeColor=#b85450;" vertex="1" parent="1">
          <mxGeometry x="1140" y="540" width="40" height="40" as="geometry" />
        </mxCell>
        <mxCell id="sg_Z7mvw4XHI6P6lNyN3-7" value="&lt;font style=&quot;font-size: 22px;&quot;&gt;Transport path&lt;/font&gt;" style="rounded=0;whiteSpace=wrap;html=1;fillColor=#e1d5e7;strokeColor=#9673a6;fontSize=21;" vertex="1" parent="1">
          <mxGeometry x="840" y="440" width="200" height="60" as="geometry" />
        </mxCell>
        <mxCell id="sg_Z7mvw4XHI6P6lNyN3-8" value="Dispatch" style="rounded=0;whiteSpace=wrap;html=1;fillColor=#f8cecc;strokeColor=#b85450;" vertex="1" parent="1">
          <mxGeometry x="400" y="540" width="80" height="40" as="geometry" />
        </mxCell>
        <mxCell id="sg_Z7mvw4XHI6P6lNyN3-9" value="&lt;font style=&quot;font-size: 22px;&quot;&gt;Collective Communication Implement&lt;/font&gt;" style="rounded=0;whiteSpace=wrap;html=1;fillColor=#e1d5e7;strokeColor=#9673a6;" vertex="1" parent="1">
          <mxGeometry x="400" y="440" width="400" height="60" as="geometry" />
        </mxCell>
        <mxCell id="sg_Z7mvw4XHI6P6lNyN3-10" value="IB" style="rounded=0;whiteSpace=wrap;html=1;fillColor=#f8cecc;strokeColor=#b85450;" vertex="1" parent="1">
          <mxGeometry x="840" y="540" width="40" height="40" as="geometry" />
        </mxCell>
        <mxCell id="sg_Z7mvw4XHI6P6lNyN3-11" value="SWIB" style="rounded=0;whiteSpace=wrap;html=1;fillColor=#f8cecc;strokeColor=#b85450;" vertex="1" parent="1">
          <mxGeometry x="900" y="540" width="60" height="40" as="geometry" />
        </mxCell>
        <mxCell id="sg_Z7mvw4XHI6P6lNyN3-12" value="P2P" style="rounded=0;whiteSpace=wrap;html=1;fillColor=#f8cecc;strokeColor=#b85450;" vertex="1" parent="1">
          <mxGeometry x="980" y="540" width="60" height="40" as="geometry" />
        </mxCell>
        <mxCell id="sg_Z7mvw4XHI6P6lNyN3-13" value="allreduce" style="rounded=0;whiteSpace=wrap;html=1;fillColor=#fff2cc;strokeColor=#d6b656;" vertex="1" parent="1">
          <mxGeometry x="510" y="540" width="50" height="40" as="geometry" />
        </mxCell>
        <mxCell id="sg_Z7mvw4XHI6P6lNyN3-14" value="bcast" style="rounded=0;whiteSpace=wrap;html=1;fillColor=#fff2cc;strokeColor=#d6b656;" vertex="1" parent="1">
          <mxGeometry x="570" y="540" width="40" height="40" as="geometry" />
        </mxCell>
        <mxCell id="sg_Z7mvw4XHI6P6lNyN3-15" value="scatter&lt;br&gt;reduce" style="rounded=0;whiteSpace=wrap;html=1;fillColor=#fff2cc;strokeColor=#d6b656;" vertex="1" parent="1">
          <mxGeometry x="620" y="540" width="50" height="40" as="geometry" />
        </mxCell>
        <mxCell id="sg_Z7mvw4XHI6P6lNyN3-16" value="allgather" style="rounded=0;whiteSpace=wrap;html=1;fillColor=#fff2cc;strokeColor=#d6b656;" vertex="1" parent="1">
          <mxGeometry x="680" y="540" width="60" height="40" as="geometry" />
        </mxCell>
        <mxCell id="sg_Z7mvw4XHI6P6lNyN3-17" value="send&lt;br&gt;recv" style="rounded=0;whiteSpace=wrap;html=1;fillColor=#fff2cc;strokeColor=#d6b656;" vertex="1" parent="1">
          <mxGeometry x="750" y="540" width="40" height="40" as="geometry" />
        </mxCell>
        <mxCell id="sg_Z7mvw4XHI6P6lNyN3-18" value="Thread Init" style="rounded=0;whiteSpace=wrap;html=1;fillColor=#f8cecc;strokeColor=#b85450;" vertex="1" parent="1">
          <mxGeometry x="140" y="540" width="100" height="40" as="geometry" />
        </mxCell>
        <mxCell id="sg_Z7mvw4XHI6P6lNyN3-19" value="Build&lt;br&gt;&amp;nbsp;Connect" style="rounded=0;whiteSpace=wrap;html=1;fillColor=#f8cecc;strokeColor=#b85450;" vertex="1" parent="1">
          <mxGeometry x="40" y="540" width="80" height="40" as="geometry" />
        </mxCell>
        <mxCell id="sg_Z7mvw4XHI6P6lNyN3-20" value="Perf&lt;br&gt;predict" style="rounded=0;whiteSpace=wrap;html=1;fillColor=#f8cecc;strokeColor=#b85450;" vertex="1" parent="1">
          <mxGeometry x="1200" y="540" width="40" height="40" as="geometry" />
        </mxCell>
        <mxCell id="sg_Z7mvw4XHI6P6lNyN3-21" value="TOPO Init" style="rounded=0;whiteSpace=wrap;html=1;fillColor=#f8cecc;strokeColor=#b85450;" vertex="1" parent="1">
          <mxGeometry x="260" y="540" width="100" height="40" as="geometry" />
        </mxCell>
        <mxCell id="sg_Z7mvw4XHI6P6lNyN3-22" value="" style="rounded=1;whiteSpace=wrap;html=1;fillColor=#d5e8d4;strokeColor=#82b366;" vertex="1" parent="1">
          <mxGeometry x="490" y="620" width="310" height="80" as="geometry" />
        </mxCell>
        <mxCell id="sg_Z7mvw4XHI6P6lNyN3-23" value="Double Ring" style="rounded=0;whiteSpace=wrap;html=1;fillColor=#cdeb8b;strokeColor=#36393d;" vertex="1" parent="1">
          <mxGeometry x="510" y="640" width="50" height="40" as="geometry" />
        </mxCell>
        <mxCell id="sg_Z7mvw4XHI6P6lNyN3-24" value="Ring" style="rounded=0;whiteSpace=wrap;html=1;fillColor=#cdeb8b;strokeColor=#36393d;" vertex="1" parent="1">
          <mxGeometry x="570" y="640" width="40" height="40" as="geometry" />
        </mxCell>
        <mxCell id="sg_Z7mvw4XHI6P6lNyN3-25" value="Butterfly" style="rounded=0;whiteSpace=wrap;html=1;fillColor=#cdeb8b;strokeColor=#36393d;" vertex="1" parent="1">
          <mxGeometry x="620" y="640" width="50" height="40" as="geometry" />
        </mxCell>
        <mxCell id="sg_Z7mvw4XHI6P6lNyN3-26" value="Butterfly with calculate" style="rounded=0;whiteSpace=wrap;html=1;fillColor=#cdeb8b;strokeColor=#36393d;" vertex="1" parent="1">
          <mxGeometry x="680" y="640" width="60" height="40" as="geometry" />
        </mxCell>
        <mxCell id="sg_Z7mvw4XHI6P6lNyN3-27" value="……" style="rounded=0;whiteSpace=wrap;html=1;fillColor=#cdeb8b;strokeColor=#36393d;" vertex="1" parent="1">
          <mxGeometry x="750" y="640" width="40" height="40" as="geometry" />
        </mxCell>
      </root>
    </mxGraphModel>
  </diagram>
</mxfile>
